<svg width="600" height="340" xmlns="http://www.w3.org/2000/svg">

 <g>
  <title>background</title>
  <rect fill="#ffffff" id="canvas_background" height="342" width="602" y="-1" x="-1"/>
 </g>
 <g>
  <title>Layer 1</title>
  <g stroke="null" id="svg_195">
   <path stroke="null" id="svg_2" d="m45.588525,310.904324c-1.754785,-6.305375 -1.898183,-12.930347 -1.970146,-19.438589c-0.465528,-16.730585 0.392704,-33.560615 3.53363,-50.021042c1.934475,-9.242833 3.861527,-18.513296 6.939347,-27.456858c1.10207,-3.655673 2.80308,-7.189945 3.19424,-11.020583c-0.352051,-3.470677 -2.072428,-6.61212 -2.98437,-9.955048c-6.093673,-17.923142 -9.184727,-36.773105 -9.9171,-55.671179c-0.110167,-3.925984 -0.823425,-7.813681 -0.905962,-11.747087c0.107728,-9.73143 -1.684734,-19.388053 -1.022115,-29.136108c0.971543,-9.940821 -0.486907,-19.943323 0.588822,-29.879023c0.250372,-8.318208 -0.866821,-16.661123 0.230549,-24.959416c0.677682,-5.306869 0.832118,-11.964799 5.841867,-15.189018c2.027024,-1.55519 4.701617,-0.998116 6.708188,0.250716c-0.634268,0.240083 -1.26184,0.46617 -1.89635,0.692379c-1.81225,0.739489 -3.835899,1.295294 -5.219296,2.749033c-1.271496,2.298437 -1.509196,4.981335 -2.305905,7.444978c-2.314538,7.347972 -1.734173,15.152016 -1.400743,22.724419c0.534778,7.180261 0.119219,14.38405 0.175299,21.572667c0.192603,6.263245 -1.273136,12.541557 -0.081875,18.766552c1.339667,7.173152 -0.509564,14.540761 1.113941,21.674259c1.27422,5.411594 -0.690233,10.949116 0.320841,16.393062c1.55598,6.843207 1.54732,13.901098 2.1476,20.858143c0.589884,4.771201 2.030193,9.361004 3.221474,13.996791c0.7317,4.546653 2.39635,8.868829 3.134987,13.415361c1.314306,4.925111 3.959708,9.375902 5.556884,14.205858c0.947271,2.981443 0.934205,6.208662 2.192095,9.094467c0.920196,2.225482 2.609659,3.993391 3.729109,6.104359c1.031562,2.244357 0.855574,4.884539 2.1285,7.041406c1.158654,1.971488 2.125597,4.092057 2.235541,6.414959c0.483777,5.848717 3.627408,11.012547 4.581371,16.76284c0.954447,5.778043 3.731594,11.017668 4.996903,16.713948c0.72902,3.200386 1.58925,6.363782 2.415034,9.54166c0.772619,2.915094 0.381286,5.940723 0.467804,8.909431c0.045583,3.406629 0.957162,6.728743 1.0165,10.128192c0.054736,3.135818 0.165094,6.277605 0.199017,9.413786c0.039079,2.636428 -0.553894,5.24225 -0.376183,7.869319c0.166535,2.384372 1.78868,4.271432 3.050188,6.171727c1.58637,-0.957619 3.732233,-1.668232 4.252248,-3.682901c1.458453,-5.105365 2.203332,-10.538323 1.333918,-15.818187c-0.653882,-3.666661 0.127361,-7.413891 -0.575084,-11.079705c-0.906075,-4.994694 -0.655984,-10.148365 -1.949599,-15.080776c-1.111212,-4.422053 -2.360935,-8.827808 -3.057462,-13.347316c-0.693414,-3.943562 -0.760467,-8.182588 -3.062118,-11.626174c-1.602265,-2.338492 -2.358102,-5.087325 -2.663598,-7.878717c-0.570282,-4.840941 -2.494895,-9.345952 -3.728649,-14.029577c-2.198291,-7.85908 -6.570195,-15.007063 -7.974531,-23.102074c-0.904137,-4.883692 -2.023221,-9.756692 -4.04605,-14.322447c-2.113746,-4.605807 -2.259101,-9.752575 -3.744669,-14.54978c-0.889348,-2.843659 -1.107923,-5.823943 -1.263696,-8.784503c-0.224404,-4.50693 -2.171681,-8.720076 -2.333767,-13.235033c-0.140132,-3.65481 0.08013,-7.336729 -0.565967,-10.954948c-1.380531,-7.526366 -1.639705,-15.218041 -1.384404,-22.856238c0.427567,-8.106168 -0.62307,-16.214293 -0.126248,-24.32861c0.637274,-10.802457 -0.3149,-21.618809 0.12812,-32.417875c0.612821,-5.444532 1.197529,-10.909393 0.955929,-16.401469c0.31728,0.285932 0.95172,0.850858 1.269,1.13679l0.430099,0.388059c-0.288775,4.925333 0.005818,9.875183 -0.526139,14.783942c-0.927941,6.872684 0.046608,13.802377 -0.318778,20.699941c-0.655822,11.330203 0.104243,22.67039 0.080111,34.010386c-0.120768,5.803751 1.186531,11.520117 0.996266,17.318141c0.960553,13.013522 0.966775,13.311921 1.622709,20.208028c0.134804,3.349553 1.09313,6.566756 1.809243,9.822885c1.116123,6.69127 2.384752,13.372938 3.943553,19.980144c1.599417,-2.595631 2.150316,-5.624044 2.897527,-8.537908c2.17039,-9.642518 3.811096,-19.414585 4.902517,-29.246463c1.842316,-11.73954 1.890964,-23.662904 3.19787,-35.462496c0.074703,-12.020976 -0.315779,-24.054651 -0.504827,-36.077962c-0.189431,-10.454918 -2.464673,-20.734633 -2.591786,-31.197579c-0.075479,-3.926589 -0.663824,-8.212033 1.418514,-11.766841c1.314333,-2.229787 3.463364,-4.349228 6.166383,-4.549084c2.800475,0.214829 5.403008,2.209692 6.475071,4.786451c5.054482,15.241713 4.200075,31.495675 4.684427,47.316822c0.218931,8.566787 0.167295,17.138297 0.302974,25.706538c-0.615837,9.247576 -1.287174,18.49612 -2.02801,27.738938c-0.345412,13.607967 -2.002404,27.218008 -5.394499,40.421131c-1.272676,4.616339 -1.895427,9.491983 -4.159425,13.771698c1.151052,-5.620481 2.845783,-11.104718 4.038703,-16.71205c3.030264,-12.065625 4.374592,-24.504329 4.740833,-36.91902c0.54001,-12.001338 2.059319,-23.957313 1.87015,-35.987562c-0.073811,-8.999586 0.85152,-18.009672 -0.103372,-26.993878c-0.764603,-6.829261 -0.309149,-13.735337 -1.19863,-20.562418c-0.656284,-5.394621 -1.341167,-10.837321 -2.993324,-16.034125c-0.693554,-2.361293 -2.357774,-4.670945 -4.899704,-5.181756c-2.675925,-0.633388 -5.338428,1.092509 -6.525825,3.438056c-1.576581,3.108775 -1.721861,6.713048 -1.585846,10.131978c0.574986,6.700716 0.685512,13.430358 1.558333,20.098115c0.788752,9.007926 1.820202,18.004675 1.77692,27.054883c0.344243,7.794286 -0.366522,15.579229 -0.410909,23.373358c-0.81445,9.001211 -0.989426,18.060657 -2.227799,27.027629c-1.005017,7.227958 -1.557876,14.51742 -2.938616,21.689478c-1.346173,7.164515 -2.468888,14.408406 -4.846435,21.327213c-0.832487,2.40181 -1.613503,4.969276 -0.923738,7.511069c1.772707,7.332147 4.056379,14.51658 6.257283,21.730217c1.813797,-5.819423 3.431886,-11.718708 5.874067,-17.320087c-0.651228,4.834503 -2.843549,9.244822 -4.087505,13.916177c-0.519374,1.65379 -0.294483,3.405625 0.330008,4.99087c2.185923,5.957801 4.772898,11.832264 5.798866,18.129541c0.715524,4.41508 2.618511,8.476324 4.058855,12.670559c5.018443,16.75521 9.093088,33.908582 10.13437,51.420251c-0.013761,5.572871 -0.319146,11.136952 -0.860896,16.677401c-0.343011,3.010905 -1.069444,6.319973 -3.441207,8.401663c-2.318925,1.928093 -6.089667,1.390152 -7.614251,-1.268925c-2.330578,-3.908045 -2.219881,-8.698415 -2.58828,-13.105675c0.323715,-25.585621 -6.55937,-50.566604 -14.633986,-74.631558c-0.578923,0.627744 -1.157966,1.248551 -1.730072,1.869236c0.744235,-2.289233 2.263912,-4.682219 1.200967,-7.134221c-2.182341,-6.547743 -4.365409,-13.137113 -7.712099,-19.199568c-2.975208,8.858493 -6.166089,17.686052 -7.997346,26.878506c-3.657183,15.907318 -6.266695,32.198855 -5.717275,48.567109c0.269952,8.309125 -0.229448,16.673319 1.038678,24.916443c0.474714,3.739187 0.22215,7.956032 2.780894,11.020383c1.823786,2.306866 5.800529,3.514369 7.977587,1.012752c2.132648,-2.660456 2.569551,-6.255941 2.768723,-9.555805c0.061528,-4.82421 -0.494273,-9.630705 -0.432866,-14.461853c0.039594,-7.273564 -0.705493,-14.57507 0.125477,-21.834688c0.326956,-3.135541 0.514917,-6.282535 0.605508,-9.441709c0.131166,-6.400752 1.625139,-12.651798 2.723061,-18.93063c0.763493,-3.968992 1.268839,-8.016756 2.638693,-11.836718c-0.704139,8.56208 -3.328641,16.838451 -4.109215,25.394926c-0.774973,11.262885 -1.528527,22.560095 -0.956626,33.854988c0.09703,7.944336 1.099104,16.053309 -0.902185,23.853838c-0.710792,2.614819 -2.660155,5.43863 -5.577999,5.656115c-4.044736,-0.331905 -6.79512,-4.038309 -7.788826,-7.6921z" fill="#000000"/>
   <path stroke="null" id="svg_3" d="m45.736264,303.864826c-1.268126,-8.243124 -0.768726,-16.607317 -1.038678,-24.916443c-0.54942,-16.368253 2.060092,-32.659791 5.717275,-48.567109c1.831257,-9.192453 5.022138,-18.020012 7.997346,-26.878506c3.34669,6.062455 5.529758,12.651825 7.712099,19.199568c1.062945,2.452002 -0.456732,4.844988 -1.200967,7.134221c-1.369854,3.819962 -1.8752,7.867726 -2.638693,11.836718c-1.097922,6.278832 -2.591895,12.529877 -2.723061,18.93063c-0.090591,3.159174 -0.278552,6.306168 -0.605508,9.441709c-0.83097,7.259618 -0.085883,14.561124 -0.125477,21.834688c-0.061407,4.831148 0.494395,9.637643 0.432866,14.461853c-0.199172,3.299865 -0.636076,6.895349 -2.768723,9.555805c-2.177059,2.501617 -6.153801,1.294115 -7.977587,-1.012752c-2.558743,-3.064351 -2.30618,-7.281197 -2.780894,-11.020383z" fill="#060503"/>
   <path stroke="null" id="svg_4" d="m45.09659,100.631122c-1.191261,-6.224994 0.274477,-12.503306 0.081875,-18.766552c-0.05608,-7.188617 0.359479,-14.392406 -0.175299,-21.572667c-0.33343,-7.572402 -0.913795,-15.376447 1.400743,-22.724419c0.796708,-2.463643 1.034409,-5.146541 2.305905,-7.444978c1.383397,-1.453739 3.407046,-2.009544 5.219296,-2.749033c1.489083,2.215552 2.994706,4.58349 3.264181,7.299174c0.215099,2.383524 0.145996,4.785889 0.229279,7.171714c0.2416,5.492076 -0.343108,10.956937 -0.955929,16.401469c-0.44302,10.799066 0.509154,21.615418 -0.12812,32.417875c-0.496822,8.114317 0.553815,16.222442 0.126248,24.32861c-0.255302,7.638197 0.003873,15.329871 1.384404,22.856238c0.646096,3.618219 0.425834,7.300139 0.565967,10.954948c0.162086,4.514957 2.109363,8.728103 2.333767,13.235033c0.155773,2.96056 0.374349,5.940844 1.263696,8.784503c1.485568,4.797205 1.630923,9.943973 3.744669,14.54978c2.02283,4.565755 3.141913,9.438755 4.04605,14.322447c1.404336,8.095011 5.77624,15.242994 7.974531,23.102074c1.233754,4.683625 3.158366,9.188636 3.728649,14.029577c0.305495,2.791393 1.061332,5.540225 2.663598,7.878717c2.301652,3.443586 2.368705,7.682612 3.062118,11.626174c0.696527,4.519508 1.94625,8.925264 3.057462,13.347316c1.293615,4.932412 1.043524,10.086082 1.949599,15.080776c0.702445,3.665814 -0.078798,7.413044 0.575084,11.079705c0.869414,5.279864 0.124535,10.712822 -1.333918,15.818187c-0.520015,2.014669 -2.665878,2.725282 -4.252248,3.682901c-1.261508,-1.900295 -2.883653,-3.787355 -3.050188,-6.171727c-0.177711,-2.627069 0.415262,-5.232891 0.376183,-7.869319c-0.033923,-3.136181 -0.144281,-6.277968 -0.199017,-9.413786c-0.059338,-3.399449 -0.970916,-6.721564 -1.0165,-10.128192c-0.086518,-2.968709 0.304815,-5.994337 -0.467804,-8.909431c-0.825784,-3.177877 -1.686014,-6.341274 -2.415034,-9.54166c-1.265309,-5.69628 -4.042456,-10.935905 -4.996903,-16.713948c-0.953963,-5.750293 -4.097594,-10.914123 -4.581371,-16.76284c-0.109944,-2.322902 -1.076887,-4.443471 -2.235541,-6.414959c-1.272926,-2.156867 -1.096938,-4.797049 -2.1285,-7.041406c-1.11945,-2.110968 -2.808913,-3.878877 -3.729109,-6.104359c-1.257891,-2.885805 -1.244825,-6.113023 -2.192095,-9.094467c-1.597176,-4.829956 -4.242577,-9.280748 -5.556884,-14.205858c-0.738638,-4.546532 -2.403287,-8.868708 -3.134987,-13.415361c-1.19128,-4.635788 -2.631589,-9.22559 -3.221474,-13.996791c-0.600279,-6.957045 -0.59162,-14.014937 -2.1476,-20.858143c-1.011073,-5.443946 0.953379,-10.981469 -0.320841,-16.393062c-1.623505,-7.133498 0.225726,-14.501107 -1.113941,-21.674259z" fill="#fefdfc"/>
   <path stroke="null" id="svg_6" d="m53.929122,27.373497c0.63451,-0.226208 1.262082,-0.452295 1.89635,-0.692379c1.000905,2.078338 2.40274,4.0664 2.624292,6.422053c0.300218,3.284208 0.12198,6.590647 0.241819,9.878003c-0.31728,-0.285932 -0.95172,-0.850858 -1.269,-1.13679c-0.083283,-2.385825 -0.014181,-4.78819 -0.229279,-7.171714c-0.269475,-2.715684 -1.775098,-5.083622 -3.264181,-7.299174z" fill="#060503"/>
   <path stroke="null" id="svg_7" d="m67.426112,186.35688c-0.689765,-2.541793 0.091251,-5.109259 0.923738,-7.511069c2.377547,-6.918807 3.500262,-14.162698 4.846435,-21.327213c1.38074,-7.172058 1.933599,-14.461521 2.938616,-21.689478c1.238374,-8.966972 1.413349,-18.026418 2.227799,-27.027629c0.044387,-7.79413 0.755151,-15.579072 0.410909,-23.373358c0.043281,-9.050208 -0.988168,-18.046958 -1.77692,-27.054883c-0.87282,-6.667758 -0.983347,-13.3974 -1.558333,-20.098115c-0.136015,-3.41893 0.009265,-7.023203 1.585846,-10.131978c1.187397,-2.345547 3.849899,-4.071444 6.525825,-3.438056c2.54193,0.510812 4.20615,2.820463 4.899704,5.181756c1.652157,5.196804 2.33704,10.639504 2.993324,16.034125c0.889481,6.827082 0.434027,13.733157 1.19863,20.562418c0.954893,8.984206 0.029561,17.994293 0.103372,26.993878c0.189169,12.030249 -1.330139,23.986223 -1.87015,35.987562c-0.366241,12.414691 -1.71057,24.853395 -4.740833,36.91902c-1.19292,5.607333 -2.887651,11.091569 -4.038703,16.71205c-0.634357,2.620424 -1.540615,5.169257 -2.53791,7.6711c-2.442181,5.60138 -4.06027,11.500664 -5.874067,17.320087c-2.200904,-7.213637 -4.484575,-14.39807 -6.257283,-21.730217z" fill="#060503"/>
   <path stroke="null" id="svg_9" d="m207.125606,288.407707c-2.509281,-2.218563 -6.350505,-4.011371 -5.976369,-8.022146c-0.521789,-4.050654 2.817888,-6.739119 5.951667,-8.501001c-2.869434,-2.177578 -6.288481,-4.831346 -6.074152,-8.853211c0.058516,-3.804012 3.243593,-6.205248 6.032946,-8.21789c-3.132131,-1.721908 -6.372252,-4.462077 -5.879812,-8.454097c-0.377552,-4.136449 3.367174,-6.679309 6.600744,-8.290259c-1.294829,-2.218943 -3.467833,-4.256002 -3.245583,-7.028847c-0.136691,-2.662484 1.64416,-4.803257 3.072523,-6.86154c2.724438,-0.165531 5.443962,0.182566 8.143399,0.572652c-0.267818,0.559856 -0.528699,1.119591 -0.782642,1.679204c-1.520923,2.719176 -1.949885,5.974474 -0.319057,8.756612c0.851132,1.449434 0.413919,3.039331 -0.227512,4.4593c0.342453,0.535324 0.691722,1.063589 1.040991,1.591855c0.492624,0.789474 1.019452,1.550592 1.566851,2.297472c0.327124,0.452314 0.667882,0.890511 1.008639,1.328708l0.024169,0.589458c-0.051977,4.178645 -3.76262,6.686212 -6.528652,9.239748c0.372782,0.284963 0.738625,0.570047 1.111286,0.848073c1.708979,1.295665 3.357335,2.696484 4.759932,4.330605c0.757689,2.457331 0.582064,5.118326 -0.501631,7.441243c-1.234281,1.249883 -2.617037,2.342742 -4.085467,3.298302c-0.514632,0.335152 -1.029386,0.663366 -1.54426,0.984643c2.073576,1.90694 4.49016,3.585819 5.935161,6.058912c1.09061,2.049013 0.250217,4.395443 -0.960985,6.172345c-0.162386,0.238786 -0.48728,0.709422 -0.649666,0.948208c-1.134333,1.012186 -2.311382,1.96266 -3.474071,2.940642c2.275616,1.951991 4.930017,3.737756 6.221265,6.546641c1.099329,2.548524 -0.64699,5.077321 -1.928814,7.181625c-2.076213,3.110556 -6.713989,3.392762 -9.895324,2.03258c-4.035357,-1.78248 -5.501772,-7.072743 -3.59772,-10.902029c1.024733,-1.725069 2.789545,-2.796838 4.202145,-4.16781z" fill="#060503"/>
   <path stroke="null" id="svg_10" d="m201.764531,207.104782c-2.47371,-2.566173 -2.852715,-6.785873 -1.108904,-9.855928c1.028003,-1.537752 2.478319,-2.735888 3.597722,-4.205838c-2.072209,-2.226193 -4.919498,-4.32782 -4.89522,-7.707909c-0.481132,-4.106882 2.917715,-6.983753 6.033985,-8.953523c-2.723294,-1.756803 -5.554976,-4.157113 -5.602982,-7.702495c-0.558208,-3.751609 2.230247,-6.610886 4.757579,-8.924303c-2.38065,-2.005676 -5.079064,-4.325035 -5.110651,-7.724968c-0.762216,-6.294941 6.61208,-11.219037 12.299168,-9.035123c1.84095,0.904734 3.153479,2.547367 4.580072,3.965937c1.416148,-1.565347 2.681761,-3.405656 4.62901,-4.362634c3.729897,-1.40448 8.827184,-0.806417 10.700967,3.17206c-2.436998,-2.053271 -5.616966,-3.732705 -8.89076,-2.83585c-3.599742,0.909485 -6.278354,4.49552 -6.589775,8.123513c0.190028,3.730276 3.759317,5.84706 6.330189,8.01597c-0.246607,0.184738 -0.725824,0.560911 -0.97231,0.752587c-1.504724,-1.521302 -3.036836,-3.021307 -4.568947,-4.521312c-1.710314,1.410867 -3.399573,2.835245 -5.088711,4.266562c1.716401,1.323294 3.419047,2.653768 5.142264,3.970003c-0.19443,1.981227 -0.803787,4.046033 -0.228379,5.999943c1.263895,2.434615 3.48683,4.151574 5.393903,6.06142c-0.444771,0.361691 -0.882726,0.716324 -1.320681,1.070957c-0.905387,-1.774656 -2.092311,-3.377843 -3.409235,-4.874664c-1.777874,1.516142 -3.541752,3.03898 -5.305509,4.568756c1.406871,1.481372 2.820558,2.955685 4.227428,4.437057c-0.0627,1.576421 -0.215469,3.161354 0.033783,4.71845c0.893863,2.704785 4.121219,3.918428 5.198039,6.370188c-0.940426,2.181622 -3.346807,3.472783 -4.559618,5.555062c-1.613136,2.207243 -0.418774,5.031699 0.824827,7.098861c-1.59964,0.992549 -2.703957,2.531633 -3.43743,4.244678c1.901436,-0.400997 3.73571,-1.071473 5.418844,-2.0516c0.254599,0.273147 0.509078,0.539355 0.770493,0.805443c-1.043503,0.649733 -2.080068,1.299345 -3.116755,1.942019c0.474874,0.567711 0.956564,1.128364 1.431437,1.696076c-2.863449,-1.039561 -6.330837,-2.0894 -9.102404,-0.250563c-3.894533,2.309523 -4.418446,8.474239 -0.932601,11.376673c3.306799,2.981896 9.125655,1.582592 11.119776,-2.255206c1.051222,-2.593002 0.230766,-5.465622 -0.439034,-8.056343c0.889488,1.261391 1.808665,2.633299 1.884959,4.221173c0.19086,2.585201 -1.163767,4.892028 -2.207047,7.144843c1.80391,-0.024548 3.704791,0.337839 5.442786,-0.282378c2.809404,-1.659064 4.629686,-5.11908 4.010457,-8.39078c-0.612361,-2.480687 -2.504469,-4.328336 -4.037393,-6.272472c1.420074,-0.54527 2.861324,-1.07009 4.259373,-1.684373c-0.737399,0.692968 -1.481856,1.37912 -2.226435,2.058334c1.347026,2.426224 3.173597,4.892657 3.002453,7.810345c-0.201801,2.751669 -2.170332,4.874899 -3.680251,7.031762c1.794582,2.224099 3.987274,4.593923 3.791165,7.671662c0.096276,2.732587 -1.858622,4.841699 -3.391413,6.880986c3.0208,1.307466 6.402323,3.004201 7.268244,6.493667c1.484029,4.311449 -1.815097,8.130387 -4.914379,10.675861c2.647948,1.813637 5.679854,4.154933 5.464955,7.746542c0.238592,3.729429 -2.396387,6.634605 -5.319736,8.52467c2.194181,2.057509 4.896868,4.224118 4.97496,7.505264c0.469628,3.447805 -2.261716,6.000736 -4.224677,8.443098c2.311394,2.013825 5.145292,4.143445 5.356168,7.47779c0.741958,5.531921 -4.815521,10.375726 -10.172528,9.608702c-2.82871,-0.242095 -4.872079,-2.406333 -6.812629,-4.246197c-0.660202,0.344633 -1.313466,0.689144 -1.96673,1.033655c1.281824,-2.104304 3.028143,-4.633101 1.928814,-7.181625c-1.291247,-2.808885 -3.945649,-4.59465 -6.221265,-6.546641c1.162689,-0.977982 2.339738,-1.928456 3.474071,-2.940642c-0.663057,0.976201 -1.305302,1.952039 -1.933428,2.941509c1.581402,1.540783 3.156108,3.095563 4.723876,4.650464c1.197897,-1.346404 2.402853,-2.685992 3.607687,-4.032518c-1.818735,-1.619918 -3.69894,-3.183244 -5.748469,-4.507664c1.211202,-1.776902 2.051595,-4.123332 0.960985,-6.172345c-1.445,-2.473093 -3.861584,-4.151972 -5.935161,-6.058912c0.514874,-0.321277 1.029628,-0.649491 1.54426,-0.984643c0.958794,2.051314 2.494054,3.731698 4.144469,5.250457c1.572651,-1.346006 3.124126,-2.712462 4.661362,-4.099488c-1.464309,-1.591405 -3.003843,-3.11904 -4.720365,-4.449272c1.083695,-2.322918 1.25932,-4.983913 0.501631,-7.441243c1.589952,-1.547561 3.229195,-3.054344 4.889734,-4.533739c-1.788683,-1.488587 -3.515897,-3.033765 -5.16837,-4.670464c-1.752667,1.369967 -3.362948,2.945642 -4.481296,4.873598c-0.37266,-0.278026 -0.738504,-0.56311 -1.111286,-0.848073c2.766032,-2.553536 6.476675,-5.061103 6.528652,-9.239748c0.124269,2.745978 0.788307,5.801762 3.272693,7.389242c2.759884,2.262768 7.110068,1.805148 9.373199,-0.933924c3.388952,-3.841326 1.225799,-11.277694 -4.168232,-11.78036c-3.6764,-0.699202 -6.437346,2.145715 -8.501828,4.735584c-0.340757,-0.438197 -0.681515,-0.876394 -1.008639,-1.328708c1.123763,-1.220195 2.233286,-2.46096 3.335752,-3.708542c-1.830657,-0.315034 -3.66813,-0.623009 -5.505119,-0.903234c0.187004,0.773989 0.387884,1.547737 0.602517,2.314304c-0.349269,-0.528265 -0.698539,-1.056531 -1.040991,-1.591855c0.641432,-1.419968 1.078644,-3.009866 0.227512,-4.4593c1.77614,1.565143 3.851689,3.187518 6.342548,3.157919c3.221007,0.054813 6.31759,-2.247721 7.053504,-5.41122c1.069234,-3.94657 -1.932531,-8.536876 -6.060398,-8.860391c-2.540754,-0.045868 -4.785873,1.339635 -7.016597,2.357079c0.253943,-0.559614 0.514824,-1.119349 0.782642,-1.679204c-2.699437,-0.390086 -5.418961,-0.738183 -8.143399,-0.572652c-1.220816,-2.35209 -2.727286,-4.768591 -2.698927,-7.517233c0.019813,-2.443143 1.524732,-4.488883 2.816158,-6.440679c-1.964738,-0.840116 -4.100495,-1.538451 -5.620185,-3.12195z" fill="#191919"/>
   <path stroke="null" id="svg_11" d="m202.627248,204.438738c-1.977207,-4.337539 1.35597,-10.57905 6.450713,-10.126677c5.088966,-0.276202 9.249627,6.299468 6.132298,10.594077c-2.619427,4.591268 -10.610511,4.793211 -12.583011,-0.467399z" fill="#fefdfc"/>
   <path stroke="null" id="svg_12" d="m202.322734,187.788627c-1.546175,-3.498412 -0.134625,-8.110234 3.43171,-9.740872c4.017403,-1.631571 8.919897,0.926906 10.102095,5.04237c1.139361,4.046814 -2.271685,8.610261 -6.461905,8.690342c-2.86916,0.223575 -5.955063,-1.235428 -7.0719,-3.99184z" fill="#fefdfc"/>
   <path stroke="null" id="svg_13" d="m202.019582,168.431979c-0.3957,-3.983457 3.1387,-7.841202 7.180772,-7.661925c5.214086,-0.264506 9.246443,6.514656 6.241691,10.897517c-2.104155,3.895237 -8.198025,4.647004 -11.176418,1.395664c-1.215437,-1.248761 -2.097347,-2.871152 -2.246045,-4.631256z" fill="#fefdfc"/>
   <path stroke="null" id="svg_14" d="m201.772414,153.078587c-0.710785,-2.950873 0.429606,-6.399022 3.186537,-7.883675c3.660712,-2.187466 8.885798,-0.23144 10.384464,3.725826c2.323606,4.303734 -1.943783,9.902274 -6.605486,9.608897c-3.165506,-0.055782 -6.230889,-2.327097 -6.965515,-5.451047z" fill="#fefdfc"/>
   <path stroke="null" id="svg_15" d="m209.233447,222.304356c-3.485845,-2.902434 -2.961932,-9.067149 0.932601,-11.376673c2.771568,-1.838837 6.238956,-0.788998 9.102404,0.250563c0.163078,0.198407 0.482538,0.609216 0.645737,0.814561c0.6698,2.59072 1.490256,5.463341 0.439034,8.056343c-1.994121,3.837798 -7.812977,5.237103 -11.119776,2.255206z" fill="#fefdfc"/>
   <path stroke="null" id="svg_16" d="m216.962335,275.8624c-1.650415,-1.518759 -3.185675,-3.199143 -4.144469,-5.250457c1.46843,-0.95556 2.851187,-2.04842 4.085467,-3.298302c1.716522,1.330232 3.256055,2.857866 4.720365,4.449272c-1.537236,1.387026 -3.088711,2.753482 -4.661362,4.099488z" fill="#fefdfc"/>
   <path stroke="null" id="svg_17" d="m212.64505,255.541786c1.118348,-1.927956 2.728629,-3.503631 4.481296,-4.873598c1.652474,1.636699 3.379687,3.181877 5.16837,4.670464c-1.66054,1.479396 -3.299782,2.986178 -4.889734,4.533739c-1.402597,-1.634121 -3.050953,-3.03494 -4.759932,-4.330605z" fill="#fefdfc"/>
   <path stroke="null" id="svg_18" d="m218.388553,292.368024c-1.567769,-1.554901 -3.142475,-3.10968 -4.723876,-4.650464c0.628127,-0.989471 1.270371,-1.965308 1.933428,-2.941509c0.162386,-0.238786 0.48728,-0.709422 0.649666,-0.948208c2.049529,1.324419 3.929734,2.887746 5.748469,4.507664c-1.204835,1.346525 -2.40979,2.686113 -3.607687,4.032518z" fill="#fefdfc"/>
   <path stroke="null" id="svg_19" d="m216.671408,196.774987c-1.375245,-1.259851 -2.716407,-2.554997 -4.023365,-3.878498c1.491735,-1.608305 2.948177,-3.250692 4.34827,-4.940674c1.472856,1.285907 2.932079,2.585931 4.384486,3.893014c-1.616855,1.596609 -3.184299,3.240934 -4.709391,4.926158z" fill="#fefdfc"/>
   <path stroke="null" id="svg_20" d="m216.704866,180.799056c-1.406871,-1.481372 -2.820558,-2.955685 -4.227428,-4.437057c1.763757,-1.529776 3.527635,-3.052613 5.305509,-4.568756c1.316923,1.496821 2.503848,3.100008 3.409235,4.874664c-1.587616,1.283809 -3.055113,2.690438 -4.487316,4.131149z" fill="#fefdfc"/>
   <path stroke="null" id="svg_21" d="m217.347316,163.535597c-1.723217,-1.316235 -3.425864,-2.646709 -5.142264,-3.970003c1.689138,-1.431316 3.378397,-2.855695 5.088711,-4.266562c1.532112,1.500005 3.064223,3.00001 4.568947,4.521312c-1.540506,1.19971 -3.03148,2.454073 -4.515394,3.715253z" fill="#fefdfc"/>
   <path stroke="null" id="svg_22" d="m214.64925,235.187182c-1.630829,-2.782138 -1.201867,-6.037435 0.319057,-8.756612c2.230724,-1.017444 4.475843,-2.402947 7.016597,-2.357079c4.127867,0.323514 7.129632,4.913821 6.060398,8.860391c-0.735914,3.163498 -3.832497,5.466033 -7.053504,5.41122c-2.490859,0.029599 -4.566408,-1.592776 -6.342548,-3.157919z" fill="#fefdfc"/>
   <path stroke="null" id="svg_23" d="m215.462751,241.238315c-0.214634,-0.766567 -0.415513,-1.540315 -0.602517,-2.314304c1.836989,0.280225 3.674463,0.5882 5.505119,0.903234c-1.102465,1.247582 -2.211989,2.488347 -3.335752,3.708542c-0.547399,-0.746879 -1.074227,-1.507997 -1.566851,-2.297472z" fill="#fefdfc"/>
   <path stroke="null" id="svg_24" d="m214.764449,208.786318c0.733473,-1.713045 1.837789,-3.252129 3.43743,-4.244678c0.644647,0.752122 1.302685,1.476251 1.981414,2.193079c-1.683134,0.980127 -3.517408,1.650603 -5.418844,2.0516z" fill="#fefdfc"/>
   <path stroke="null" id="svg_25" d="m218.393509,281.916651c-1.627419,-4.17709 2.292896,-8.985379 6.62744,-8.748749c1.963355,-0.03427 4.123351,0.462388 5.41434,2.063759c2.748603,3.206772 1.941649,8.661633 -1.663078,10.875881c-3.890104,1.768144 -9.184238,0.229709 -10.378702,-4.190891z" fill="#fefdfc"/>
   <path stroke="null" id="svg_26" d="m217.861771,204.547562c-1.243601,-2.067162 -2.437964,-4.891618 -0.824827,-7.098861c1.212811,-2.08228 3.619191,-3.373441 4.559618,-5.555062c-1.07682,-2.45176 -4.304176,-3.665403 -5.198039,-6.370188c-0.249252,-1.557096 -0.096483,-3.142029 -0.033783,-4.71845c1.432203,-1.440711 2.899699,-2.847339 4.487316,-4.131149c0.437955,-0.354633 0.87591,-0.709265 1.320681,-1.070957c-1.907073,-1.909846 -4.130008,-3.626805 -5.393903,-6.06142c-0.575407,-1.953909 0.03395,-4.018716 0.228379,-5.999943c1.483915,-1.26118 2.974888,-2.515543 4.515394,-3.715253c0.246486,-0.191676 0.725703,-0.567848 0.97231,-0.752587c-2.570872,-2.16891 -6.140161,-4.285694 -6.330189,-8.01597c0.31142,-3.627993 2.990033,-7.214028 6.589775,-8.123513c3.273794,-0.896856 6.453761,0.782579 8.89076,2.83585c1.499654,2.42356 2.073624,5.487857 1.045395,8.205373c-0.671467,2.482277 -3.226808,3.588664 -5.138919,4.968354c1.787437,1.814777 4.247499,3.201428 5.151483,5.690904c0.542621,2.461085 0.543344,5.285556 -1.023045,7.387887c-1.139005,1.53969 -3.204522,2.082346 -4.280483,3.655634c2.801147,2.241228 6.304415,4.949044 5.508535,9.050457c-0.06554,3.401628 -3.122641,5.182992 -5.385218,7.158679c1.689705,1.781785 4.257136,2.958368 4.836867,5.5576c1.370554,3.376561 -0.256149,7.589633 -3.432644,9.289803c-1.39805,0.614283 -2.8393,1.139103 -4.259373,1.684373c1.532924,1.944136 3.425032,3.791785 4.037393,6.272472c0.619229,3.2717 -1.201053,6.731716 -4.010457,8.39078c-1.737995,0.620217 -3.638876,0.25783 -5.442786,0.282378c1.04328,-2.252815 2.397907,-4.559642 2.207047,-7.144843c-0.076295,-1.587874 -0.995471,-2.959783 -1.884959,-4.221173c-0.163199,-0.205344 -0.482659,-0.616154 -0.645737,-0.814561c-0.474874,-0.567711 -0.956564,-1.128364 -1.431437,-1.696076c1.036686,-0.642674 2.073252,-1.292286 3.116755,-1.942019c-0.261416,-0.266088 -0.515894,-0.532297 -0.770493,-0.805443c-0.67873,-0.716828 -1.336767,-1.440957 -1.981414,-2.193079z" fill="#060503"/>
   <path stroke="null" id="svg_27" d="m219.545084,297.79555c-0.79274,-2.477538 0.298049,-5.189206 2.120733,-6.921264c3.15006,-2.817011 9.093861,-2.226784 10.852368,1.90638c2.435335,4.343422 -1.189103,10.596956 -6.239677,10.289548c-3.162479,0.117659 -5.918453,-2.318671 -6.733424,-5.274664z" fill="#fefdfc"/>
   <path stroke="null" id="svg_28" d="m218.926082,265.911214c-2.13916,-4.869074 3.274187,-10.813786 8.339016,-9.292167c4.304422,0.896433 6.72908,6.218548 4.603507,10.07946c-2.137651,5.554425 -11.223688,4.651239 -12.942523,-0.787293z" fill="#fefdfc"/>
   <path stroke="null" id="svg_29" d="m221.335101,252.843236c-2.484386,-1.587479 -3.148424,-4.643264 -3.272693,-7.389242l-0.024169,-0.589458c2.064482,-2.589869 4.825428,-5.434786 8.501828,-4.735584c5.394031,0.502667 7.557184,7.939035 4.168232,11.78036c-2.263131,2.739071 -6.613315,3.196691 -9.373199,0.933924z" fill="#fefdfc"/>
   <path stroke="null" id="svg_30" d="m224.657141,255.505615c-0.166156,-1.16992 2.393837,-1.214605 2.268612,-0.039599c-0.494339,0.702605 -1.756991,0.724645 -2.268612,0.039599z" fill="#060503"/>
   <path stroke="null" stroke-width="0" id="svg_31" d="m342.929722,301.792683c-5.008359,-1.467086 -7.119073,-8.682297 -3.634084,-12.587757c1.095406,-1.254398 2.395638,-2.304179 3.632219,-3.422246c-1.988543,-1.408761 -4.240233,-2.785169 -5.163093,-5.163279c-1.88335,-4.526551 0.569558,-10.308552 5.375033,-11.717927c-2.52852,-2.128011 -6.154884,-4.334015 -5.569833,-8.188857c-0.085116,-3.683529 2.840362,-6.246788 5.397745,-8.428875c-2.023075,-1.796785 -4.563326,-3.404108 -5.347035,-6.159395c-0.726356,-3.047757 -0.459589,-6.848465 2.161687,-8.94839c2.05808,-1.763925 4.900942,-1.903764 7.479326,-2.087566c-0.488472,-0.949161 -1.004573,-1.8909 -1.424273,-2.875961c-0.806615,-2.477296 -1.606379,-5.357218 -0.184313,-7.776258c1.475508,-2.53795 4.00502,-4.72649 6.96001,-5.201395c3.068379,0.057477 5.461416,2.375227 7.632482,4.301284c1.745792,3.40471 1.194269,7.987642 -1.7519,10.558202c-1.870279,1.788406 -4.58072,1.960633 -6.979971,2.467476c1.381714,2.425619 3.071227,4.9916 2.588131,7.928613c-0.217926,3.418168 -3.313142,5.40145 -5.551877,7.550215c1.694013,1.233468 3.586555,2.310796 4.899568,3.98118c0.679195,2.333785 0.368848,4.830577 0.181442,7.214188c-0.23052,2.696652 -2.807799,4.136531 -4.661018,5.709507c2.28046,2.229497 5.298612,4.577974 5.062415,8.142196c0.333054,3.575105 -2.326128,6.28639 -4.680624,8.562092c2.138679,2.058478 5.25363,3.988879 5.021344,7.379538c0.462569,3.440989 -1.346052,7.171453 -4.561836,8.608597c-2.238959,0.545684 -4.619057,0.55947 -6.881544,0.154817z" fill="#060503"/>
   <path stroke="null" id="svg_32" d="m340.410636,203.720085c-2.763881,-2.49171 -3.582743,-6.863348 -1.996525,-10.215182c0.951118,-1.966676 2.824026,-3.206886 4.473354,-4.533411c-2.533036,-1.989137 -5.56591,-4.385934 -5.371703,-7.970243c-0.131257,-3.543928 2.375297,-6.25255 4.679776,-8.610656c-2.332535,-2.429841 -5.349925,-5.132259 -4.672989,-8.891548c0.071509,-3.457251 2.792247,-5.822623 5.383194,-7.672186c-2.779002,-2.165277 -5.965317,-5.003541 -5.499175,-8.911825c0.195801,-5.083325 5.098164,-9.291116 10.163305,-8.546757c5.274759,0.428411 9.019958,6.261838 7.545813,11.26338c-0.717609,2.621877 -3.027382,4.27916 -4.975791,5.964833c2.698934,1.951542 5.451724,4.60306 5.369004,8.213181c0.193212,3.515088 -2.432736,6.142516 -4.661022,8.492353c2.129406,2.322351 4.830121,4.773525 4.661243,8.218596c0.166188,3.557198 -2.585969,6.110492 -4.94813,8.344689c1.799738,1.724346 3.966446,3.400648 4.559205,5.951074c0.795646,2.644042 -0.470885,5.226922 -1.379322,7.650877c3.372597,0.787782 6.912595,2.419294 8.139759,5.930214c1.997415,4.302488 -0.636735,8.845434 -3.827453,11.718673c0.960076,1.329556 1.906397,2.666292 2.825452,4.031263c-2.171067,-1.926057 -4.564103,-4.243806 -7.632482,-4.301284c-2.95499,0.474905 -5.484501,2.663445 -6.96001,5.201395c-1.422066,2.419041 -0.622302,5.298963 0.184313,7.776258c-2.16643,-2.057994 -2.085198,-5.3558 -0.985171,-7.935774c0.951724,-1.931987 2.641225,-3.342491 4.134777,-4.846731c-1.828579,-1.7863 -4.120769,-3.49511 -4.61846,-6.165172c-0.70082,-2.777552 0.598704,-5.458165 1.623628,-7.967431c-2.125792,-0.525015 -4.481894,-0.726781 -6.214592,-2.188586z" fill="#191919"/>
   <path stroke="null" id="svg_33" d="m339.831744,199.975782c-1.582316,-3.581058 0.323866,-8.083539 3.949335,-9.507015c3.09184,-0.983897 7.094068,-0.304261 8.7441,2.782891c2.271479,3.305318 0.8223,8.146809 -2.629279,9.990576c-3.457704,2.288019 -8.4121,0.334207 -10.064156,-3.266453z" fill="#fefdfc"/>
   <path stroke="null" id="svg_34" d="m339.653784,182.622537c-1.517713,-4.650909 3.02424,-10.025229 7.891822,-9.069229c4.526946,0.524741 7.426634,6.025938 5.311148,10.067108c-1.666563,3.519791 -6.287991,4.73858 -9.71505,3.216133c-1.625883,-0.908488 -2.87452,-2.468959 -3.48792,-4.214013z" fill="#fefdfc"/>
   <path stroke="null" id="svg_35" d="m339.359612,164.577333c-0.596908,-5.173585 5.54451,-9.562618 10.217576,-7.027896c4.550197,1.85677 5.59779,8.597815 1.821611,11.724164c-4.004708,3.949231 -11.780443,0.982882 -12.039187,-4.696268z" fill="#fefdfc"/>
   <path stroke="null" id="svg_36" d="m339.799089,149.99616c-0.972478,-2.835268 -0.417635,-6.432811 2.159921,-8.254382c3.486735,-3.010261 9.580879,-1.360874 11.209751,2.899468c1.004225,3.063726 0.105769,6.854641 -2.623325,8.741315c-3.631629,2.263296 -9.277768,0.835101 -10.746347,-3.3864z" fill="#fefdfc"/>
   <path stroke="null" id="svg_38" d="m346.484907,212.975792c-1.015745,-4.916442 4.372652,-9.507464 9.110079,-8.056469c4.508399,1.052487 6.81702,6.883231 4.289184,10.758104c-2.356851,4.12866 -9.055473,4.426019 -11.821791,0.601917c-0.738833,-0.97949 -1.299708,-2.100881 -1.577472,-3.303552z" fill="#fefdfc"/>
   <path stroke="null" id="svg_39" d="m367.173106,231.705974c-1.481365,-4.15882 1.282351,-8.037811 4.304713,-10.616641c-1.631661,-1.637063 -3.586484,-3.10193 -4.588479,-5.242707c-1.088567,-3.124712 -0.509848,-6.944744 1.919509,-9.30503c1.755487,-1.605969 4.045709,-2.395439 6.158735,-3.396949c-0.86139,-2.434701 -1.974836,-4.996858 -1.410219,-7.636884c0.487213,-2.701133 2.872937,-4.38056 4.72216,-6.182478c-0.977982,-1.162689 -1.928577,-2.346676 -2.803948,-3.594433c1.246371,1.033089 2.628588,1.897252 3.773074,3.057035c0.286795,0.924922 -0.738559,1.421664 -1.220718,2.0269c-1.925901,1.782437 -4.263701,3.821896 -3.962964,6.738287c-0.039122,3.32483 2.311164,5.976434 5.180305,7.342065c-2.608557,0.045533 -5.266524,0.043349 -7.794079,0.753685c-3.428914,1.551901 -5.149232,5.96786 -3.928885,9.485839c0.970939,2.349512 2.952147,4.133148 5.050723,5.48447c0.813608,0.492401 1.640606,0.95681 2.474542,1.421097c-2.481085,0.987115 -5.57123,2.068139 -6.122734,5.061864c-1.426273,4.563501 2.58017,9.858006 7.434865,9.280544c5.050246,-0.108972 8.138547,-6.464184 5.601691,-10.660099c-1.0558,-2.042681 -3.392629,-2.730567 -5.337401,-3.619609c0.54702,-0.467573 1.093918,-0.942083 1.633516,-1.437285c2.150968,-2.008438 4.491226,-4.304711 4.881711,-7.378903c0.141421,-2.632639 -1.27377,-4.988276 -2.286093,-7.323186c3.705865,-0.793361 8.122106,-2.237581 9.019871,-6.465688c1.412483,-4.160754 -2.217443,-7.366023 -4.640254,-10.196795c2.374461,-2.324629 5.627098,-4.831141 5.270566,-8.55851c-0.05349,-3.462009 -3.164288,-5.552097 -5.619556,-7.459313c1.76746,-2.11278 3.96175,-4.024818 4.935688,-6.671989c0.452732,-2.291085 -0.302171,-4.588849 -0.674656,-6.844711c0.980006,1.676196 2.267085,3.451129 1.907362,5.504639c-0.288998,3.322252 -2.906156,5.658057 -5.179944,7.786615c2.633467,1.779191 5.381293,4.146265 5.379403,7.61618c0.474956,3.753062 -2.439708,6.538205 -4.953528,8.830567c2.43551,2.365586 5.199719,5.273676 4.522056,8.991339c-0.365781,4.489472 -4.417251,7.349976 -8.502508,8.274876c0.862601,2.504078 2.005372,5.15594 1.302849,7.846951c-0.558164,2.612154 -2.628908,4.445698 -4.436506,6.24689c2.03356,1.602288 4.448085,3.163228 5.229493,5.786699c0.892496,3.024038 -0.645002,5.986396 -1.630273,8.779499c3.685846,1.240339 7.631826,3.468524 8.350655,7.675353c1.075313,4.353282 -2.369226,7.793072 -5.399374,10.323459c2.576841,2.113288 5.419216,4.728543 5.274541,8.367505c0.164613,3.467009 -2.40668,6.044905 -4.834186,8.113688c2.176274,2.224376 5.087818,4.428978 5.105893,7.849967c0.299577,3.645087 -2.534015,6.303899 -4.908719,8.614652c2.135375,2.266729 5.041555,4.561641 4.775913,8.02922c0.429365,5.912124 -6.266892,11.115855 -11.837615,8.839693c-4.041361,-1.33129 -6.822731,-5.620094 -6.077957,-9.86635c0.244189,-3.106337 2.867765,-5.074446 5.11304,-6.848579c-2.885282,-1.892771 -5.599716,-4.732332 -5.345613,-8.463421c-0.350477,-3.380487 2.349085,-5.766309 4.518445,-7.913864c-2.115409,-2.315655 -4.58803,-4.819389 -4.598198,-8.184997c-0.243955,-3.639118 2.701488,-6.251304 5.09043,-8.541487c-1.946363,-2.172871 -4.530142,-4.286038 -4.682368,-7.440973c-0.449612,-2.69866 0.783079,-5.232371 2.117862,-7.483334c-3.535553,-0.979251 -7.51553,-2.769637 -8.272836,-6.795361z" fill="#000000"/>
   <path stroke="null" id="svg_40" d="m367.522332,215.134683c-1.220347,-3.517978 0.499971,-7.933938 3.928885,-9.485839c2.527555,-0.710336 5.185523,-0.708153 7.794079,-0.753685c-2.86914,-1.365631 -5.219426,-4.017235 -5.180305,-7.342065c-0.300737,-2.916391 2.037063,-4.95585 3.962964,-6.738287c0.482159,-0.605236 1.507513,-1.101977 1.220718,-2.0269c-1.144486,-1.159783 -2.526703,-2.023946 -3.773074,-3.057035c-1.582007,-1.575471 -1.299654,-4.085655 -1.189566,-6.127867c0.269361,-2.856945 2.756727,-4.676942 5.101637,-5.911512c-1.40398,-2.508507 -4.848859,-3.461582 -5.216758,-6.647452c-1.177924,-4.268214 1.327766,-8.219038 4.799708,-10.486486c-1.925913,-2.194047 -4.566525,-4.382559 -4.525103,-7.575574c-0.492273,-4.745146 3.835633,-9.262139 8.60967,-8.894385c5.728925,-0.190216 9.942388,6.627424 7.414811,11.709812c-1.289125,2.083612 -3.430906,3.425672 -5.192725,5.06645c1.28009,0.976982 2.560302,1.960902 3.867537,2.902711c0.372485,2.255861 1.127388,4.553626 0.674656,6.844711c-0.973939,2.647171 -3.168228,4.559209 -4.935688,6.671989c2.455268,1.907217 5.566066,3.997305 5.619556,7.459313c0.356532,3.72737 -2.896105,6.233882 -5.270566,8.55851c2.422811,2.830772 6.052737,6.03604 4.640254,10.196795c-0.897765,4.228107 -5.314005,5.672327 -9.019871,6.465688c1.012323,2.33491 2.427514,4.690547 2.286093,7.323186c-0.390485,3.074192 -2.730742,5.370464 -4.881711,7.378903c-1.823704,0.878484 -3.89076,0.935384 -5.684479,-0.046512c-2.098577,-1.351322 -4.079784,-3.134958 -5.050723,-5.48447z" fill="#060503"/>
   <path stroke="null" id="svg_41" d="m376.359731,236.382677c-4.854695,0.577462 -8.861138,-4.717043 -7.434865,-9.280544c0.551504,-2.993725 3.641649,-4.074749 6.122734,-5.061864c-0.833936,-0.464287 -1.660935,-0.928696 -2.474542,-1.421097c1.793719,0.981896 3.860775,0.924996 5.684479,0.046512c-0.539598,0.495202 -1.086496,0.969713 -1.633516,1.437285c1.944773,0.889043 4.281601,1.576928 5.337401,3.619609c2.536856,4.195915 -0.551444,10.551127 -5.601691,10.660099z" fill="#fefdfc"/>
   <path stroke="null" id="svg_42" d="m375.554805,297.216805c-1.721882,-4.022767 1.353563,-9.524164 5.907205,-9.457913c3.842646,-0.511219 7.620806,2.837197 7.591009,6.696226c0.126257,3.655052 -2.90557,7.281951 -6.666261,7.319835c-3.005975,0.337 -5.730566,-1.891685 -6.831953,-4.558149z" fill="#fefdfc"/>
   <path stroke="null" id="svg_43" d="m375.340133,280.544324c-1.886498,-4.70693 2.630767,-10.302892 7.638434,-9.272999c5.221438,0.554258 8.089965,7.450891 4.69065,11.493651c-3.151412,4.329903 -10.906596,2.938522 -12.329084,-2.220652z" fill="#fefdfc"/>
   <path stroke="null" id="svg_44" d="m375.11887,263.89273c-0.819971,-2.84487 0.010648,-6.148817 2.590989,-7.810822c3.592374,-2.921888 9.76304,-0.864391 10.992676,3.583354c1.148947,3.005682 -0.323241,6.529021 -2.965536,8.219866c-3.778894,2.175649 -9.471866,0.449862 -10.618129,-3.992398z" fill="#fefdfc"/>
   <path stroke="null" id="svg_45" d="m375.473173,247.217218c-1.835427,-4.16652 1.138133,-9.541223 5.790753,-9.768169c5.662041,-0.841386 10.054152,6.271545 6.924003,11.024402c-2.575899,5.097111 -11.127495,4.198475 -12.714756,-1.256233z" fill="#fefdfc"/>
   <path stroke="null" id="svg_46" d="m379.721721,254.055093c-0.006418,-0.367695 -0.026192,-1.102965 -0.039548,-1.47054c1.470903,-0.018735 2.934626,-0.051224 4.411982,-0.097831c-0.000277,0.381692 0.012801,1.130958 0.019462,1.512529c-1.464086,0.011676 -2.928052,0.03029 -4.391896,0.055842z" fill="#060503"/>
   <path stroke="null" id="svg_48" d="m495.619902,205.389894c-0.972264,-7.991517 0.114985,-16.074501 -1.037537,-24.055932c-0.453241,-5.689635 -0.45614,-11.42183 -0.444801,-17.133454c0.478842,-4.37347 0.714503,-8.763514 0.748609,-13.17086c1.040334,-11.565927 -0.51583,-23.190628 0.427255,-34.761797c0.223332,-9.469737 -0.358346,-18.939301 -0.252954,-28.406979c0.856666,-10.160888 0.026272,-20.361727 0.022185,-30.53535c-0.014193,-8.764674 -0.758413,-17.606823 0.741619,-26.293832c0.186332,-1.25241 0.749114,-2.407294 1.312259,-3.541366c-0.552871,3.312978 -0.855018,6.677098 -0.678467,10.032862c1.820352,-4.251151 1.415483,-9.157437 3.961709,-13.171427c2.732794,0.313167 6.078644,0.761367 6.904185,3.92537c-1.605519,-1.332169 -3.542022,-2.145019 -5.470256,-2.881675c-1.397221,2.252053 -2.812955,4.636284 -2.918113,7.358508c-0.581996,9.198407 -1.281811,18.405809 -1.072309,27.625099c-0.828689,8.98064 1.438025,17.976647 0.164721,26.93035c-0.487889,3.457579 -0.190976,6.950037 0.257718,10.391268c0.367501,3.560624 -0.104455,7.135901 0.255987,10.689708c0.448502,4.225428 -1.145571,8.319954 -0.863814,12.534413c0.235908,5.166007 0.915826,10.324263 0.520286,15.494352c-0.310331,3.690432 -0.231789,7.394895 0.061577,11.081729c0.381028,4.733208 -1.071663,9.373508 -0.843384,14.102443c0.317496,7.454705 0.100672,14.911796 0.452856,22.365895c0.193403,2.730891 0.775799,5.482752 0.233568,8.212604c-0.929981,5.165538 -0.13067,10.404987 -0.324412,15.606253c-0.155401,3.819583 0.237393,7.636537 1.045114,11.369911c3.046113,-0.025411 6.096136,-0.224384 9.114655,-0.637941c1.054581,-4.786026 1.211783,-9.695183 2.008823,-14.525292c0.065893,4.967721 1.242622,10.360197 -1.126324,14.988731c-3.83372,1.420172 -8.028143,0.861867 -12.014956,0.667746c-0.868254,-6.00856 0.456274,-12.027636 -0.051464,-18.056368c0.07245,-8.571873 -0.659626,-17.115824 -1.010372,-25.680311c-0.182468,9.822951 0.822129,19.666821 -0.123964,29.475342z" fill="#000000"/>
   <path stroke="null" id="svg_49" d="m500.003841,323.754345c-2.699867,-2.40261 -3.321967,-6.236381 -3.333468,-9.678303c-0.258765,-16.414965 -0.469088,-32.837716 -0.616851,-49.254619c0.71262,-10.85929 -0.004764,-21.742198 -0.090459,-32.615313c-0.058846,-8.937389 -0.63132,-17.879692 -0.343163,-26.816199c0.946094,-9.808521 -0.058503,-19.652391 0.123964,-29.475342c0.350747,8.564486 1.082822,17.108437 1.010372,25.680311c0.507738,6.028732 -0.81679,12.047808 0.051464,18.056368c3.986813,0.194121 8.181236,0.752426 12.014956,-0.667746c2.368945,-4.628534 -0.014328,-9.99995 -0.080221,-14.967671c0.392719,-4.934088 -0.128017,-10.497325 0.625702,-15.423834c1.033198,-5.215918 -0.613128,-9.663633 -0.966976,-14.827581c-0.222052,-3.577042 1.17588,-6.981109 1.530743,-10.505763c0.354863,-3.524655 -0.558158,-15.278558 0.259698,-22.891875c0.255849,-2.83589 -0.445577,-5.64813 -0.321664,-8.488657c0.436942,-6.773897 0.276641,-13.572068 -0.098364,-20.345672c0.463424,-2.076139 1.051362,-4.17527 0.833322,-6.329731c-0.406841,-4.621721 -0.751486,-9.258408 -1.407841,-13.861894c0.344117,-1.754827 0.764547,-3.510986 0.837248,-5.309654c0.189956,-7.803611 -0.105965,-15.61262 -0.221386,-23.41784c-0.150027,-4.619264 0.658189,-9.206676 0.396917,-13.837878c-0.255631,-5.103204 0.291689,-10.324521 -1.058638,-15.32534c-0.440443,-1.775831 -1.033031,-3.521248 -1.825235,-5.172964c-0.825542,-3.164002 -4.171392,-3.612203 -6.904185,-3.92537c-2.546227,4.01399 -2.141358,8.920276 -3.961709,13.171427c-0.176551,-3.355764 0.125596,-6.719884 0.678467,-10.032862c1.062156,-2.36418 3.004822,-5.173995 5.98334,-4.698563c4.304199,-0.706649 6.858926,3.717967 7.304558,7.381323c1.330303,9.817365 1.303128,19.790281 0.718882,29.654944c-0.039933,15.20572 0.579332,30.406874 0.698965,45.609809c-0.698706,7.680635 -0.383546,15.399092 -0.235374,23.092704c0.163181,14.119572 0.326483,28.246081 -0.621208,42.336465c0.022204,7.633353 0.530529,15.28598 -0.287449,22.89236c-0.817978,7.60638 0.914748,53.996218 1.26106,80.992795c-0.708104,10.720416 0.06248,21.47054 -0.242998,32.197808c-0.60654,4.611651 0.183689,9.330777 -0.694267,13.898587c-0.887714,4.803932 -7.777633,6.069257 -11.018203,2.905771z" fill="#060503"/>
   <path stroke="null" id="svg_51" d="m509.798365,91.330217c-1.848939,-4.145465 0.141705,-8.580022 -0.495567,-12.885432c-0.783272,-6.308453 0.126122,-12.653392 -0.456078,-18.972294c-0.400388,-4.649593 1.130191,-9.201036 0.806118,-13.851961c-0.279092,-4.06183 -0.127929,-8.124231 0.099669,-12.181026c1.350327,5.000819 0.803007,10.222136 1.058638,15.32534c0.261272,4.631202 -0.546944,9.218614 -0.396917,13.837878c0.115421,7.80522 0.411343,15.614229 0.221386,23.41784c-0.072701,1.798668 -0.493131,3.554827 -0.837248,5.309654z" fill="#000000"/>
   <path stroke="null" id="svg_52" d="m510.071228,111.527182c-1.66956,-6.591393 -0.769612,-13.477468 -0.574519,-20.191625c0.656355,4.603486 1.000999,9.240173 1.407841,13.861894c0.21804,2.154461 -0.369898,4.253592 -0.833322,6.329731z" fill="#000000"/>
   <path stroke="null" id="svg_53" d="m530.156728,322.936542c-2.58563,-1.821664 -2.270335,-5.227652 -2.346524,-8.002228c0.020476,-7.176074 -0.361795,-14.365936 0.332239,-21.519068c0.204574,-6.568588 -0.106509,-15.835285 -0.394498,-23.332143c-0.287989,-7.496858 0.335392,-11.462803 0.425885,-19.000966c0.119611,-7.857901 -0.400842,-14.306258 0.24771,-23.578703c0.648552,-9.272445 -0.255617,-16.234586 -0.175174,-24.348575c1.046697,-9.213458 0.100594,-18.489288 0.098858,-27.733023c-0.069592,-7.167562 -0.576741,-14.355245 0.089543,-21.507892c0.301404,-4.599385 -0.334622,-9.230985 0.27934,-13.815007c0.86794,-5.539202 0.214839,-11.149011 0.20085,-16.721398c-0.235162,-6.713587 0.522244,-13.41674 0.238397,-20.136417c-0.360259,-11.097334 -0.12388,-22.205083 -0.525765,-33.301691c-0.169317,-5.326783 0.654177,-10.629258 0.463926,-15.962616c-0.235752,-5.554636 0.500373,-11.091537 0.410312,-16.648717c-0.004043,-3.80986 -0.189435,-7.672073 0.6125,-11.426603c0.399012,-1.790484 1.211256,-3.761675 3.02996,-4.529036c3.397859,-1.343166 7.521796,0.743117 8.760534,4.121979c1.664892,4.336051 1.275962,9.089638 1.265213,13.642311c-0.395476,9.944645 -0.346458,19.909291 -0.089553,29.856429c0.363662,15.268073 0.054251,30.540955 0.764553,45.789098c0.003743,8.563604 0.437621,17.119699 0.378804,25.677455c-0.455388,8.897787 -0.80659,17.800695 -1.386976,26.693724c-0.355455,19.791472 1.176737,39.584694 0.342342,59.370647c0.264448,9.981705 0.14063,19.984066 1.216299,29.923852c0.388685,10.340404 -1.243181,20.61892 -0.958681,30.954203c-0.621091,5.368339 -0.33226,10.783253 -0.842227,16.156593c-0.288881,6.112035 0.824336,12.636801 -2.102512,18.302159c-2.268529,3.224949 -7.467201,3.97497 -10.335353,1.075634z" fill="#060503"/>
   <path stroke="null" id="svg_54" d="m531.1306,322.253322c-3.619445,-2.882348 -2.279159,-9.668947 -1.731367,-14.557163c0.528368,-3.270912 0.35025,-3.177586 0.469466,-9.765503c0.119216,-6.587917 -0.138893,-14.925008 -0.244955,-20.273715c-0.106062,-5.348707 -0.452445,-9.539974 -0.392577,-15.877957c0.059868,-6.337983 1.233969,-14.31665 0.761963,-21.41473c-0.472006,-7.09808 -0.528479,-1.669445 -0.460539,-5.204838c0.067941,-3.535393 0.384784,-4.642479 0.662627,-7.055427c0.159824,-2.154117 -0.020877,-4.316169 -0.099372,-6.473065c2.926248,-1.230838 6.167785,-1.169443 9.258361,-0.786184c1.092872,0.598563 1.226829,2.032756 1.64701,3.094145c1.413463,4.534753 0.693714,9.321874 1.047316,13.979223c0.286297,4.311536 0.089758,8.652319 0.668333,12.937934c0.272855,1.591383 0.783546,2.604632 0.141177,4.024616c-0.568959,1.335426 -0.87759,4.270282 -0.545058,5.770407c0.486057,2.885398 -0.668791,4.804145 -0.488501,7.722639c0.730673,3.248935 -0.148695,7.89692 -0.456339,9.737515c-0.307644,1.840595 0.043255,2.088114 0.196467,4.625393c0.130785,3.592515 -0.024146,7.196957 -0.465639,10.764762c-0.568621,5.645014 0.689089,11.396944 -0.718319,16.959442c-0.854553,3.304365 -0.471961,6.892484 -1.75757,10.072517c-1.527051,2.608247 -3.873038,4.602336 -7.492483,1.719988z" fill="#fefdfc"/>
   <path stroke="null" id="svg_55" d="m528.893135,140.8543c-0.703527,-9.896075 -0.318826,-19.824955 -0.682327,-29.73387c-0.048194,-7.829176 -0.532016,-15.664558 -0.267034,-23.485391c1.006067,-9.028295 -0.520245,-18.109054 0.52676,-27.131159c0.095132,-9.364538 0.312716,-18.731214 0.244457,-28.099805c0.250161,-3.601755 0.348601,-8.098484 3.623555,-10.337558c3.53455,-2.181462 8.108077,0.189902 9.822156,3.6538c2.662356,5.15973 1.645056,11.205358 1.831089,16.79498c-1.138447,14.699428 0.330196,29.443111 -0.154687,44.15875c0.552064,10.575387 0.593909,21.15968 0.81275,31.747788c0.003141,6.027816 0.366958,12.05624 0.05024,18.082734c-0.369019,7.3186 0.208534,14.675916 -0.589551,21.974387c-1.40896,12.846765 0.327565,25.783625 -0.570694,38.649094c-0.323428,8.760903 0.883924,17.501991 0.383499,26.259078c-0.426213,7.160789 1.146672,14.231445 0.86332,21.38974c-0.251181,3.933203 0.936913,8.062235 -0.487385,11.843295c-1.05728,-9.8899 -0.938375,-19.84176 -1.200193,-29.773164c0.813232,-19.685905 -0.694179,-39.379636 -0.35059,-59.071153c0.566888,-8.84801 0.909038,-17.705906 1.353353,-26.558681c0.055528,-8.514559 -0.372073,-17.027591 -0.377892,-25.547984c-0.700338,-15.17138 -0.400765,-30.367119 -0.761197,-45.558242c-0.254413,-9.89701 -0.304979,-19.811387 0.080325,-29.705753c0.009399,-4.529698 0.389586,-9.259202 -1.244072,-13.573791c-1.215537,-3.362123 -5.259936,-5.438914 -8.591492,-4.103378c-1.783203,0.763032 -2.579183,2.724073 -2.97,4.505423c-0.785424,3.735384 -0.602663,7.578155 -0.597743,11.368792c0.089707,5.529161 -0.630738,11.037939 -0.398169,16.564606c0.187895,5.306494 -0.618281,10.582006 -0.450915,15.881953c0.396867,11.040716 0.167863,22.092357 0.523912,33.133785c0.280022,6.685841 -0.460999,13.354981 -0.228718,20.034751c0.015116,5.544272 0.656944,11.125938 -0.192756,16.636973z" fill="#333333"/>
   <ellipse stroke="null" transform="matrix(-0.012109713877047698,-0.6937650433755392,0.6937650433755392,-0.012109713877047698,159.0124826645533,583.6824538909872) " ry="6.950621" rx="7.623262" id="svg_192" cy="321.275557" cx="522.822835" fill-opacity="null" stroke-opacity="null" stroke-width="null" fill="#060503"/>
  </g>
 </g>
</svg>