<?xml version="1.0" standalone="no"?>
<!DOCTYPE svg PUBLIC "-//W3C//DTD SVG 20010904//EN"
 "http://www.w3.org/TR/2001/REC-SVG-20010904/DTD/svg10.dtd">
<svg version="1.0" xmlns="http://www.w3.org/2000/svg"
 width="400.000000pt" height="400.000000pt" viewBox="0 0 400.000000 400.000000"
 preserveAspectRatio="xMidYMid meet">
<metadata>
Created by potrace 1.11, written by Peter Selinger 2001-2013
</metadata>
<g transform="translate(0.000000,400.000000) scale(0.100000,-0.100000)"
fill="#000000" stroke="none">
<path d="M1859 3926 c-2 -2 -35 -6 -74 -9 -233 -19 -521 -117 -745 -252 -61
-36 -159 -103 -170 -115 -3 -3 -26 -22 -52 -43 -264 -212 -494 -558 -589 -886
-57 -197 -74 -319 -74 -541 0 -177 9 -252 49 -435 39 -175 142 -402 261 -580
89 -131 114 -162 225 -273 261 -261 580 -433 941 -506 118 -24 202 -31 369
-31 177 1 242 7 395 41 94 20 264 74 271 85 3 5 12 9 20 9 15 0 146 63 228
109 183 104 383 277 518 451 32 41 63 80 68 87 24 29 97 157 140 243 93 188
152 387 177 600 10 82 10 346 1 425 -44 364 -199 714 -438 990 -277 320 -678
545 -1085 609 -22 4 -56 9 -75 12 -43 7 -355 16 -361 10z"/>
</g>
</svg>
